# xmcd
#
# Track frame offsets: 
#        183
#        38883
#        74288
#        92620
#        114303
#        150333
#        204133
#        239438
#        271740
#
# Disc length: 4037 seconds
#
# Revision: 2
# Processed by: cddbd v1.5.2PL0 Copyright (c) Steve Scherf et al.
# Submitted via: ExactAudioCopy v0.95b4
#
DISCID=670fc309
DTITLE=Joseph Keilberth, Symphonieorchester des Bayerischen Rundfunks 
DTITLE=/ Beethoven - Symphonies Nos.8 and 7
DYEAR=1967
DGENRE=Classical
TTITLE0=Ouvertuere zu Collins Trauerspiel "Coriolan" Op.62
TTITLE1=Symphonie No.8 F-Dur Op.93 - Allegro vivace e con brio
TTITLE2=Symphonie No.8 F-Dur Op.93 - Allegretto scherzando
TTITLE3=Symphonie No.8 F-Dur Op.93 - Tempo di Menuetto
TTITLE4=Symphonie No.8 F-Dur Op.93 - Allegro vivace
TTITLE5=Symphonie No.7 A-Dur Op.92 -  Poco sostenuto - Vivace
TTITLE6=Symphonie No.7 A-Dur Op.92 -  Allegretto
TTITLE7=Symphonie No.7 A-Dur Op.92 -  Presto
TTITLE8=Symphonie No.7 A-Dur Op.92 -  Allegro con brio
EXTD=
EXTT0=
EXTT1=
EXTT2=
EXTT3=
EXTT4=
EXTT5=
EXTT6=
EXTT7=
EXTT8=
PLAYORDER=
